<svg data-name="Layer 3" xmlns="http://www.w3.org/2000/svg" viewBox="0 0 128 128"><path fill="#c99e79" fill-rule="evenodd" d="M57.072 85.782l6.941-20.87-42.498-25.245-7.187 21.016L35.7 73.232l21.372 12.55z"/><path fill="#643513" fill-rule="evenodd" d="M63.999 14.694l21.373 12.55 21.372 12.549-21.372 12.55-21.619 12.695-21.126-12.695-21.372-12.55 21.372-12.549 21.372-12.55z"/><path fill="#926e43" fill-rule="evenodd" d="M63.753 65.038v48.812L21.255 89.247V64.75L35.7 73.232l21.372 12.55 6.681-20.744z"/><path fill="#d9ac80" fill-rule="evenodd" d="M21.256 39.793l-8.341-.544L55.66 14.15l8.34.544-21.372 12.55-21.372 12.549z"/><path d="M106.73 41.237l.014-1.444-.413.242zm-42.977 23.8v48.813l42.5-24.6.246-24.641-14.69 8.626-21.376 12.547z" fill="#a67e4f" fill-rule="evenodd"/><path fill="#d9ac80" fill-rule="evenodd" d="M70.433 85.782l-6.68-20.744 42.498-25.244 6.927 20.889-21.372 12.549-21.373 12.55zm36.311-45.989l8.341-.544L72.34 14.15l-8.34.544 21.372 12.55 21.372 12.549z"/><path fill="#8d5122" fill-rule="evenodd" d="M64 47.982V14.694l-21.372 12.55-21.372 12.549 21.371 12.55 6.889 4.046L64 47.982z"/><path fill="#77411b" fill-rule="evenodd" d="M64 14.694v33.288l14.398 8.357 27.853-16.546.08.243.413-.243-21.372-12.549L64 14.694z"/></svg>